<svg xmlns="http://www.w3.org/2000/svg" xmlns:xlink="http://www.w3.org/1999/xlink" width="3" height="652" viewBox="0 0 3 652">
  <defs>
    <filter id="Rectangle_1">
      <feOffset dy="3" input="SourceAlpha"/>
      <feGaussianBlur stdDeviation="3" result="blur"/>
      <feFlood flood-opacity="0.161" result="color"/>
      <feComposite operator="out" in="SourceGraphic" in2="blur"/>
      <feComposite operator="in" in="color"/>
      <feComposite operator="in" in2="SourceGraphic"/>
    </filter>
  </defs>
  <g id="Group_2" data-name="Group 2" transform="translate(-720.53 -513.222)">
    <g data-type="innerShadowGroup">
      <rect id="Rectangle_1-2" data-name="Rectangle 1" width="3" height="652" rx="1.5" transform="translate(720.53 513.222)" fill="#f93"/>
      <g transform="matrix(1, 0, 0, 1, 720.53, 513.22)" filter="url(#Rectangle_1)">
        <rect id="Rectangle_1-3" data-name="Rectangle 1" width="3" height="652" rx="1.5" fill="#fff"/>
      </g>
    </g>
    <g id="Group_1" data-name="Group 1" transform="translate(721 513)">
      <path id="Rectangle_3" data-name="Rectangle 3" d="M1.5,0h0A1.5,1.5,0,0,1,3,1.5V14a0,0,0,0,1,0,0H0a0,0,0,0,1,0,0V1.5A1.5,1.5,0,0,1,1.5,0Z" transform="translate(-0.47 0.222)" fill="#2a2525"/>
      <rect id="Rectangle_4" data-name="Rectangle 4" width="3" height="2" transform="translate(-0.47 6.222)" fill="#fff"/>
      <rect id="Rectangle_5" data-name="Rectangle 5" width="3" height="2" transform="translate(-0.47 9.222)" fill="#fff"/>
    </g>
  </g>
</svg>
